<svg xmlns="http://www.w3.org/2000/svg" width="245" height="51" viewBox="0 0 245 51" fill="none"><g clip-path="url(#clip0_1213_2650)"><path d="M67.8051 13.1067C67.607 12.7887 67.3593 12.5095 67.0627 12.2685C66.7654 12.0281 66.4294 11.8407 66.0544 11.7061C65.6795 11.5715 65.2866 11.5046 64.8768 11.5046C64.127 11.5046 63.4903 11.6499 62.9668 11.9398C62.4433 12.2296 62.0188 12.6186 61.6935 13.1067C61.3681 13.5947 61.1311 14.1504 60.9825 14.7723C60.8339 15.3949 60.7595 16.039 60.7595 16.7038C60.7595 17.3686 60.8339 17.9597 60.9825 18.5609C61.1311 19.1621 61.3681 19.7037 61.6935 20.1844C62.0188 20.6657 62.4433 21.0514 62.9668 21.3412C63.4903 21.6311 64.127 21.7764 64.8768 21.7764C65.8958 21.7764 66.6911 21.4651 67.2642 20.8425C67.8373 20.2199 68.1874 19.3991 68.3146 18.3808H71.5402C71.4551 19.3288 71.2355 20.1844 70.8821 20.9489C70.5279 21.7128 70.0613 22.3635 69.4815 22.9011C68.9011 23.4387 68.2222 23.8491 67.4443 24.1323C66.6664 24.4155 65.8101 24.5567 64.8762 24.5567C63.716 24.5567 62.6722 24.3552 61.7457 23.9522C60.8191 23.5492 60.0372 22.9942 59.4005 22.2865C58.7638 21.5796 58.2758 20.7481 57.9364 19.7927C57.5969 18.8381 57.4269 17.8084 57.4269 16.7051C57.4269 15.6018 57.5969 14.5226 57.9364 13.5539C58.2758 12.5851 58.7638 11.7396 59.4005 11.0179C60.0372 10.2962 60.8185 9.73048 61.7457 9.32008C62.6722 8.90969 63.716 8.70483 64.8762 8.70483C65.711 8.70483 66.4997 8.82534 67.2421 9.06568C67.9846 9.3067 68.65 9.65683 69.2371 10.1161C69.8243 10.576 70.309 11.1451 70.6906 11.8246C71.0729 12.5035 71.3132 13.2821 71.4123 14.1591H68.1867C68.1298 13.7768 68.0026 13.4267 67.8045 13.1087L67.8051 13.1067Z" fill="#0D1E3A"></path><path d="M72.6435 16.3534C72.912 15.6391 73.2942 15.0305 73.7897 14.5284C74.2844 14.0263 74.8789 13.6373 75.5725 13.3615C76.2654 13.0857 77.044 12.9478 77.9069 12.9478C78.7699 12.9478 79.5519 13.0857 80.2521 13.3615C80.9524 13.6373 81.5502 14.027 82.0457 14.5284C82.5404 15.0305 82.9227 15.6391 83.1918 16.3534C83.4603 17.0677 83.5948 17.8637 83.5948 18.7408C83.5948 19.6178 83.4603 20.4104 83.1918 21.1174C82.9227 21.825 82.5411 22.4296 82.0457 22.9317C81.5502 23.4338 80.9524 23.8194 80.2521 24.0885C79.5519 24.357 78.7699 24.4916 77.9069 24.4916C77.044 24.4916 76.2654 24.357 75.5725 24.0885C74.8789 23.8201 74.2851 23.4345 73.7897 22.9317C73.2942 22.4296 72.912 21.825 72.6435 21.1174C72.3744 20.4104 72.2405 19.6178 72.2405 18.7408C72.2405 17.8637 72.375 17.0677 72.6435 16.3534ZM75.3817 20.0248C75.4667 20.4426 75.6113 20.8175 75.8168 21.1495C76.0217 21.4823 76.2942 21.7474 76.6336 21.9455C76.973 22.1437 77.3975 22.2428 77.9069 22.2428C78.4164 22.2428 78.8442 22.1437 79.191 21.9455C79.5378 21.7474 79.8136 21.4823 80.0185 21.1495C80.2233 20.8175 80.3686 20.4426 80.4536 20.0248C80.5387 19.6077 80.5808 19.1799 80.5808 18.7408C80.5808 18.3016 80.5387 17.8704 80.4536 17.446C80.3686 17.0215 80.2233 16.6466 80.0185 16.3213C79.813 15.9959 79.5371 15.7308 79.191 15.5252C78.8442 15.3204 78.4164 15.2173 77.9069 15.2173C77.3975 15.2173 76.973 15.3204 76.6336 15.5252C76.2942 15.7308 76.0217 15.9959 75.8168 16.3213C75.6113 16.6466 75.4667 17.0215 75.3817 17.446C75.2967 17.8704 75.2545 18.3022 75.2545 18.7408C75.2545 19.1793 75.2967 19.6077 75.3817 20.0248Z" fill="#0D1E3A"></path><path d="M87.7322 9.06421V24.2165H84.7189V9.06421H87.7322Z" fill="#0D1E3A"></path><path d="M92.2947 9.06421V24.2165H89.2814V9.06421H92.2947Z" fill="#0D1E3A"></path><path d="M96.985 21.5849C97.4376 22.0234 98.0883 22.243 98.9372 22.243C99.5451 22.243 100.069 22.091 100.508 21.7864C100.946 21.4824 101.215 21.1604 101.315 20.821H103.967C103.543 22.1365 102.892 23.0778 102.015 23.6435C101.137 24.2092 100.076 24.4924 98.8314 24.4924C97.9685 24.4924 97.1899 24.3545 96.497 24.0787C95.8034 23.8029 95.2163 23.4099 94.7356 22.9011C94.2542 22.3916 93.8833 21.7837 93.6216 21.0761C93.3598 20.3691 93.2292 19.5905 93.2292 18.7416C93.2292 17.8927 93.3638 17.1569 93.6323 16.4493C93.9007 15.7423 94.283 15.1304 94.7784 14.6136C95.2732 14.0974 95.8643 13.6904 96.5505 13.3931C97.2367 13.0959 97.9973 12.9473 98.8321 12.9473C99.766 12.9473 100.579 13.1274 101.272 13.4882C101.965 13.8491 102.535 14.3338 102.981 14.9416C103.427 15.5502 103.748 16.2438 103.946 17.0217C104.144 17.7996 104.215 18.6131 104.158 19.462H96.2426C96.2847 20.4381 96.5325 21.1457 96.985 21.5842V21.5849ZM100.391 15.8126C100.03 15.417 99.4822 15.2181 98.7464 15.2181C98.2651 15.2181 97.8654 15.2998 97.5474 15.4625C97.2294 15.6252 96.9743 15.8267 96.7835 16.067C96.5927 16.308 96.4581 16.5624 96.3805 16.8309C96.3028 17.1 96.2566 17.3404 96.2426 17.5526H101.145C101.003 16.7887 100.753 16.209 100.392 15.8126H100.391Z" fill="#0D1E3A"></path><path d="M115.395 25.0226C115.275 25.5883 115.016 26.1152 114.62 26.6039C114.224 27.0919 113.651 27.5057 112.901 27.8451C112.151 28.1845 111.147 28.3546 109.888 28.3546C109.35 28.3546 108.802 28.287 108.243 28.1531C107.684 28.0185 107.174 27.8096 106.715 27.5271C106.255 27.2439 105.873 26.8797 105.569 26.4338C105.264 25.988 105.092 25.4537 105.049 24.8318H108.041C108.183 25.3975 108.459 25.7898 108.869 26.0094C109.279 26.2283 109.753 26.3381 110.291 26.3381C111.14 26.3381 111.758 26.0837 112.148 25.5742C112.537 25.0648 112.724 24.4207 112.71 23.6428V22.1994H112.668C112.343 22.7798 111.88 23.2076 111.278 23.4835C110.677 23.7593 110.044 23.8972 109.379 23.8972C108.558 23.8972 107.851 23.7526 107.257 23.462C106.662 23.1721 106.174 22.7758 105.793 22.2737C105.41 21.7716 105.131 21.1845 104.955 20.5123C104.778 19.8408 104.689 19.1298 104.689 18.3794C104.689 17.6724 104.792 16.9895 104.997 16.3314C105.202 15.6733 105.503 15.0936 105.899 14.5914C106.295 14.0893 106.787 13.6897 107.374 13.3924C107.961 13.0952 108.637 12.9465 109.401 12.9465C110.122 12.9465 110.755 13.0811 111.3 13.3496C111.844 13.6187 112.301 14.0713 112.669 14.7079H112.711V13.2438H115.576V23.5149C115.576 23.9534 115.516 24.4555 115.396 25.0219L115.395 25.0226ZM111.267 21.3726C111.592 21.2025 111.862 20.9769 112.073 20.6937C112.285 20.4105 112.445 20.0892 112.55 19.7284C112.656 19.3675 112.71 18.9892 112.71 18.5929C112.71 18.1403 112.668 17.7126 112.583 17.3089C112.498 16.9058 112.356 16.5483 112.158 16.237C111.96 15.9257 111.698 15.678 111.373 15.4946C111.047 15.3111 110.637 15.2187 110.142 15.2187C109.717 15.2187 109.353 15.3038 109.048 15.4731C108.744 15.6432 108.489 15.8728 108.284 16.1627C108.079 16.4526 107.931 16.7853 107.839 17.1602C107.746 17.5351 107.701 17.9281 107.701 18.3378C107.701 18.7476 107.74 19.1265 107.817 19.5155C107.895 19.9044 108.029 20.2552 108.22 20.5659C108.411 20.8772 108.662 21.1316 108.973 21.3297C109.285 21.5279 109.674 21.627 110.14 21.627C110.565 21.627 110.94 21.542 111.265 21.3726H111.267Z" fill="#0D1E3A"></path><path d="M120.308 21.5849C120.76 22.0234 121.411 22.243 122.26 22.243C122.868 22.243 123.391 22.091 123.83 21.7864C124.269 21.4824 124.537 21.1604 124.637 20.821H127.29C126.865 22.1365 126.214 23.0778 125.337 23.6435C124.46 24.2092 123.399 24.4924 122.154 24.4924C121.291 24.4924 120.513 24.3545 119.82 24.0787C119.126 23.8029 118.539 23.4099 118.058 22.9011C117.577 22.3916 117.206 21.7837 116.944 21.0761C116.682 20.3691 116.552 19.5905 116.552 18.7416C116.552 17.8927 116.686 17.1569 116.955 16.4493C117.223 15.7423 117.606 15.1304 118.101 14.6136C118.596 14.0974 119.187 13.6904 119.873 13.3931C120.559 13.0959 121.32 12.9473 122.155 12.9473C123.089 12.9473 123.902 13.1274 124.595 13.4882C125.288 13.8491 125.858 14.3338 126.304 14.9416C126.749 15.5502 127.071 16.2438 127.269 17.0217C127.467 17.7996 127.537 18.6131 127.481 19.462H119.565C119.607 20.4381 119.855 21.1457 120.308 21.5842V21.5849ZM123.713 15.8126C123.352 15.417 122.804 15.2181 122.068 15.2181C121.587 15.2181 121.187 15.2998 120.869 15.4625C120.551 15.6252 120.296 15.8267 120.105 16.067C119.915 16.308 119.78 16.5624 119.702 16.8309C119.625 17.1 119.579 17.3404 119.565 17.5526H124.467C124.325 16.7887 124.075 16.209 123.714 15.8126H123.713Z" fill="#0D1E3A"></path><path d="M146.585 15.2609V13.2451H148.388V12.3962C148.388 11.4201 148.692 10.6207 149.301 9.99813C149.909 9.37552 150.829 9.06421 152.06 9.06421C152.328 9.06421 152.597 9.07492 152.866 9.09634C153.134 9.11777 153.396 9.13517 153.651 9.14923V11.3987C153.297 11.3565 152.929 11.3351 152.548 11.3351C152.137 11.3351 151.844 11.4308 151.667 11.6216C151.49 11.8124 151.402 12.1344 151.402 12.587V13.2451H153.482V15.2609H151.402V24.2165H148.389V15.2609H146.585H146.585Z" fill="#0D1E3A"></path><path d="M165.554 9.06421L169.098 19.484H169.14L172.493 9.06421H177.183V24.2165H174.063V13.4781H174.021L170.307 24.2165H167.739L164.025 13.5845H163.983V24.2165H160.863V9.06421H165.554Z" fill="#0D1E3A"></path><path d="M182.107 21.5849C182.56 22.0234 183.211 22.243 184.059 22.243C184.667 22.243 185.191 22.091 185.63 21.7864C186.069 21.4824 186.337 21.1604 186.437 20.821H189.089C188.665 22.1365 188.014 23.0778 187.137 23.6435C186.259 24.2092 185.198 24.4924 183.954 24.4924C183.091 24.4924 182.312 24.3545 181.619 24.0787C180.926 23.8029 180.338 23.4099 179.858 22.9011C179.376 22.3916 179.006 21.7837 178.744 21.0761C178.482 20.3691 178.351 19.5905 178.351 18.7416C178.351 17.8927 178.486 17.1569 178.754 16.4493C179.023 15.7423 179.405 15.1304 179.901 14.6136C180.395 14.0974 180.987 13.6904 181.673 13.3931C182.359 13.0959 183.119 12.9473 183.954 12.9473C184.888 12.9473 185.702 13.1274 186.395 13.4882C187.087 13.8491 187.657 14.3338 188.103 14.9416C188.549 15.5502 188.87 16.2438 189.068 17.0217C189.267 17.7996 189.337 18.6131 189.281 19.462H181.365C181.407 20.4381 181.655 21.1457 182.107 21.5842V21.5849ZM185.513 15.8126C185.152 15.417 184.604 15.2181 183.868 15.2181C183.387 15.2181 182.987 15.2998 182.669 15.4625C182.351 15.6252 182.096 15.8267 181.905 16.067C181.714 16.308 181.58 16.5624 181.502 16.8309C181.424 17.1 181.378 17.3404 181.364 17.5526H186.267C186.125 16.7887 185.874 16.209 185.514 15.8126H185.513Z" fill="#0D1E3A"></path><path d="M197.938 22.816C197.585 23.4105 197.122 23.8383 196.549 24.1C195.975 24.3618 195.328 24.4923 194.607 24.4923C193.786 24.4923 193.065 24.333 192.443 24.015C191.82 23.697 191.307 23.2652 190.904 22.7202C190.501 22.1759 190.197 21.55 189.992 20.8423C189.786 20.1354 189.684 19.3989 189.684 18.6351C189.684 17.8712 189.786 17.189 189.992 16.5021C190.197 15.8159 190.501 15.2114 190.904 14.6878C191.307 14.1643 191.813 13.7432 192.421 13.4252C193.029 13.1072 193.737 12.9479 194.543 12.9479C195.194 12.9479 195.813 13.0858 196.401 13.3616C196.988 13.6374 197.451 14.0445 197.79 14.5821H197.833V9.06421H200.846V24.2165H197.981V22.816H197.939H197.938ZM197.811 17.3932C197.726 16.9761 197.581 16.6079 197.376 16.2899C197.17 15.9719 196.905 15.7135 196.58 15.5153C196.255 15.3171 195.844 15.2181 195.349 15.2181C194.853 15.2181 194.436 15.3171 194.097 15.5153C193.757 15.7135 193.485 15.9752 193.28 16.3006C193.075 16.626 192.926 16.9975 192.834 17.4146C192.742 17.8324 192.696 18.2669 192.696 18.7201C192.696 19.1445 192.746 19.569 192.845 19.9934C192.944 20.4179 193.103 20.7968 193.322 21.1289C193.541 21.4616 193.817 21.7301 194.15 21.9356C194.482 22.1411 194.882 22.2436 195.349 22.2436C195.844 22.2436 196.258 22.1445 196.59 21.9463C196.922 21.7481 197.188 21.483 197.386 21.1503C197.584 20.8182 197.726 20.4393 197.811 20.0149C197.896 19.5904 197.938 19.1519 197.938 18.6993C197.938 18.2468 197.896 17.8116 197.811 17.3945L197.811 17.3932Z" fill="#0D1E3A"></path><path d="M202.289 11.5466V9.06348H205.302V11.5466H202.289ZM205.302 13.2444V24.2158H202.289V13.2444H205.302Z" fill="#0D1E3A"></path><path d="M212.008 15.2181C211.527 15.2181 211.124 15.3279 210.798 15.5469C210.473 15.7664 210.207 16.049 210.002 16.3957C209.797 16.7425 209.652 17.1248 209.567 17.5419C209.482 17.9597 209.44 18.3734 209.44 18.7831C209.44 19.1928 209.482 19.5825 209.567 19.9929C209.652 20.4032 209.79 20.7748 209.981 21.1069C210.172 21.4396 210.43 21.7114 210.756 21.9236C211.081 22.1359 211.477 22.2416 211.944 22.2416C212.666 22.2416 213.221 22.0401 213.61 21.6371C213.999 21.2341 214.243 20.6925 214.342 20.0136H217.249C217.051 21.4711 216.486 22.5817 215.552 23.3456C214.618 24.1095 213.422 24.4918 211.965 24.4918C211.145 24.4918 210.391 24.3538 209.705 24.078C209.019 23.8022 208.435 23.4166 207.954 22.9212C207.473 22.4257 207.098 21.8353 206.83 21.149C206.561 20.4628 206.427 19.7097 206.427 18.8889C206.427 18.0681 206.551 17.2513 206.798 16.523C207.046 15.7946 207.41 15.1646 207.892 14.6344C208.372 14.1041 208.959 13.6897 209.653 13.3931C210.346 13.0959 211.138 12.9473 212.03 12.9473C212.68 12.9473 213.306 13.0323 213.907 13.2017C214.509 13.3717 215.046 13.6295 215.52 13.9763C215.994 14.323 216.38 14.7542 216.677 15.271C216.974 15.7879 217.144 16.3991 217.187 17.1067H214.237C214.039 15.8474 213.296 15.2181 212.009 15.2181H212.008Z" fill="#0D1E3A"></path><path d="M218.12 11.5466V9.06348H221.133V11.5466H218.12ZM221.133 13.2444V24.2158H218.12V13.2444H221.133Z" fill="#0D1E3A"></path><path d="M225.463 13.2445V14.7723H225.526C225.909 14.1356 226.403 13.6723 227.012 13.3824C227.62 13.0925 228.243 12.9473 228.88 12.9473C229.686 12.9473 230.347 13.0571 230.864 13.276C231.38 13.4956 231.787 13.7995 232.084 14.1885C232.382 14.5774 232.59 15.0514 232.71 15.6105C232.83 16.1695 232.891 16.7881 232.891 17.4676V24.2159H229.877V18.0192C229.877 17.1141 229.735 16.4379 229.453 15.9927C229.17 15.5469 228.667 15.3239 227.946 15.3239C227.125 15.3239 226.531 15.5683 226.163 16.0563C225.795 16.5444 225.611 17.3477 225.611 18.4651V24.2159H222.598V13.2445H225.463Z" fill="#0D1E3A"></path><path d="M237.495 21.5849C237.948 22.0234 238.599 22.243 239.447 22.243C240.055 22.243 240.579 22.091 241.018 21.7864C241.457 21.4824 241.725 21.1604 241.825 20.821H244.477C244.053 22.1365 243.402 23.0778 242.525 23.6435C241.647 24.2092 240.586 24.4924 239.342 24.4924C238.479 24.4924 237.7 24.3545 237.007 24.0787C236.314 23.8029 235.726 23.4099 235.246 22.9011C234.764 22.3916 234.394 21.7837 234.132 21.0761C233.87 20.3691 233.739 19.5905 233.739 18.7416C233.739 17.8927 233.874 17.1569 234.142 16.4493C234.411 15.7423 234.793 15.1304 235.289 14.6136C235.783 14.0974 236.374 13.6904 237.061 13.3931C237.747 13.0959 238.507 12.9473 239.342 12.9473C240.276 12.9473 241.09 13.1274 241.783 13.4882C242.475 13.8491 243.045 14.3338 243.491 14.9416C243.937 15.5502 244.258 16.2438 244.456 17.0217C244.655 17.7996 244.725 18.6131 244.669 19.462H236.753C236.795 20.4381 237.043 21.1457 237.495 21.5842V21.5849ZM240.902 15.8126C240.541 15.417 239.992 15.2181 239.257 15.2181C238.775 15.2181 238.376 15.2998 238.058 15.4625C237.74 15.6252 237.484 15.8267 237.294 16.067C237.103 16.308 236.968 16.5624 236.891 16.8309C236.813 17.1 236.767 17.3404 236.753 17.5526H241.655C241.513 16.7887 241.263 16.209 240.902 15.8126H240.902Z" fill="#0D1E3A"></path><path d="M64.5267 43.1267C63.8405 43.4239 63.0659 43.5725 62.2029 43.5725C61.5241 43.5725 60.8834 43.4735 60.2822 43.2753C59.681 43.0771 59.1608 42.7839 58.7223 42.3949C58.2838 42.006 57.937 41.532 57.6826 40.973C57.4282 40.4139 57.3004 39.7739 57.3004 39.0522C57.3004 38.5146 57.3921 38.0232 57.5762 37.5774C57.7596 37.1315 58.0113 36.7285 58.3293 36.3676C58.6473 36.0068 59.0115 35.6854 59.4226 35.4022C59.833 35.1197 60.2574 34.872 60.6959 34.6598C60.2856 34.165 59.9428 33.6696 59.667 33.1742C59.3911 32.6795 59.2532 32.099 59.2532 31.4342C59.2532 30.9107 59.3623 30.4367 59.5819 30.0123C59.8009 29.5878 60.0948 29.2236 60.4623 28.919C60.8298 28.6151 61.2509 28.3814 61.7249 28.2187C62.1989 28.056 62.6903 27.9744 63.1998 27.9744C63.7796 27.9744 64.3212 28.052 64.8233 28.208C65.3254 28.364 65.7639 28.5936 66.1388 28.8976C66.5137 29.2022 66.8103 29.5804 67.0299 30.033C67.2488 30.4862 67.3586 31.0091 67.3586 31.6036C67.3586 32.4947 67.1002 33.2452 66.584 33.8531C66.0672 34.4616 65.4272 34.9711 64.6633 35.3808L66.6155 37.7789C66.7708 37.4964 66.8913 37.2025 66.9763 36.8978C67.0613 36.5939 67.125 36.2859 67.1671 35.9746H69.7774C69.7065 36.6535 69.5511 37.3116 69.3108 37.9483C69.0698 38.5849 68.7377 39.1721 68.3133 39.7097L71.3902 43.2961H67.6974L66.4662 41.7891C65.8576 42.3836 65.2102 42.8288 64.5247 43.126L64.5267 43.1267ZM61.502 37.015C61.2476 37.171 61.0206 37.3544 60.8231 37.5667C60.625 37.7789 60.4656 38.0125 60.3458 38.2669C60.2253 38.5213 60.1657 38.8045 60.1657 39.1158C60.1657 39.385 60.226 39.6434 60.3458 39.8904C60.4656 40.1381 60.625 40.3503 60.8231 40.5271C61.0213 40.7038 61.2509 40.8451 61.5127 40.9515C61.7745 41.0573 62.0463 41.1109 62.3295 41.1109C62.8671 41.1109 63.3377 40.987 63.7407 40.7393C64.1438 40.4916 64.522 40.1703 64.8762 39.7739L62.2873 36.612C62.0182 36.7251 61.7571 36.8597 61.502 37.015ZM64.3145 30.4146C64.0387 30.1321 63.7166 29.9902 63.3491 29.9902C62.9815 29.9902 62.6629 30.114 62.3944 30.3617C62.1253 30.6094 61.9914 30.9315 61.9914 31.3271C61.9914 31.8085 62.1186 32.2182 62.3737 32.5583C62.6281 32.8977 62.8972 33.2445 63.1804 33.598C63.6048 33.3295 63.969 33.039 64.2736 32.7277C64.5776 32.4164 64.7302 31.9852 64.7302 31.4329C64.7302 31.0372 64.5923 30.6971 64.3165 30.4139L64.3145 30.4146Z" fill="#0D1E3A"></path><path d="M83.2333 28.1443C84.2094 28.1443 85.1186 28.3003 85.9601 28.6109C86.8016 28.9222 87.5307 29.3888 88.146 30.0115C88.7612 30.6341 89.2419 31.412 89.5887 32.3459C89.9355 33.2799 90.1089 34.3765 90.1089 35.6351C90.1089 36.7384 89.9669 37.7573 89.6844 38.6913C89.4012 39.6252 88.9734 40.4312 88.4004 41.1107C87.8273 41.7903 87.1129 42.3238 86.2567 42.7128C85.4004 43.1018 84.3922 43.2966 83.2327 43.2966H76.6965V28.1443H83.2327H83.2333ZM83.0003 40.4955C83.481 40.4955 83.9483 40.4178 84.4009 40.2618C84.8535 40.1065 85.2565 39.8481 85.6106 39.4873C85.9641 39.1264 86.2473 38.6564 86.4595 38.076C86.6718 37.4962 86.7775 36.7886 86.7775 35.9538C86.7775 35.1899 86.7032 34.5003 86.5546 33.8844C86.406 33.2685 86.1623 32.7423 85.8222 32.3031C85.4828 31.8646 85.0335 31.5285 84.4745 31.2949C83.9155 31.0612 83.226 30.9447 82.4052 30.9447H80.0285V40.4948H82.9997L83.0003 40.4955Z" fill="#0D1E3A"></path><path d="M94.4176 40.665C94.8701 41.1035 95.5209 41.3231 96.3698 41.3231C96.9777 41.3231 97.5012 41.1711 97.9404 40.8665C98.3789 40.5626 98.6473 40.2406 98.7471 39.9011H101.4C100.975 41.2167 100.324 42.158 99.4474 42.7237C98.5697 43.2894 97.5086 43.5726 96.264 43.5726C95.401 43.5726 94.6224 43.4347 93.9295 43.1588C93.2359 42.883 92.6488 42.49 92.1681 41.9812C91.6868 41.4717 91.3159 40.8639 91.0541 40.1562C90.7924 39.4492 90.6618 38.6706 90.6618 37.8217C90.6618 36.9728 90.7964 36.2371 91.0648 35.5301C91.3333 34.8225 91.7156 34.2112 92.211 33.6944C92.7057 33.1782 93.2969 32.7712 93.9831 32.4739C94.6693 32.1767 95.4298 32.0281 96.2647 32.0281C97.1986 32.0281 98.012 32.2082 98.7049 32.569C99.3978 32.9299 99.9676 33.4146 100.413 34.0225C100.859 34.631 101.181 35.3246 101.379 36.1025C101.577 36.8805 101.647 37.6939 101.591 38.5428H93.6751C93.7173 39.5189 93.965 40.2265 94.4176 40.665ZM97.8232 34.8928C97.4624 34.4971 96.9141 34.2983 96.1783 34.2983C95.697 34.2983 95.2973 34.38 94.9793 34.5426C94.6613 34.7053 94.4062 34.9068 94.2154 35.1472C94.0246 35.3882 93.89 35.6426 93.8124 35.9111C93.7347 36.1802 93.6885 36.4205 93.6745 36.6327H98.577C98.4351 35.8689 98.1847 35.2891 97.8239 34.8928H97.8232Z" fill="#0D1E3A"></path><path d="M105.325 32.3246V33.8523H105.389C105.771 33.2157 106.266 32.7524 106.875 32.4625C107.482 32.1726 108.106 32.0273 108.742 32.0273C109.549 32.0273 110.21 32.1371 110.727 32.3561C111.243 32.5756 111.65 32.8796 111.947 33.2686C112.244 33.6575 112.453 34.1315 112.573 34.6905C112.693 35.2495 112.753 35.8681 112.753 36.5477V43.296H109.74V37.0993C109.74 36.1942 109.598 35.518 109.315 35.0728C109.032 34.6269 108.53 34.404 107.808 34.404C106.988 34.404 106.394 34.6484 106.026 35.1364C105.657 35.6245 105.474 36.4278 105.474 37.5452V43.296H102.461V32.3246H105.325Z" fill="#0D1E3A"></path><path d="M113.466 32.3245V29.0354H116.479V32.3245H118.686V34.3403H116.479V39.7732C116.479 40.2826 116.564 40.6221 116.733 40.7914C116.903 40.9615 117.243 41.0458 117.752 41.0458C117.922 41.0458 118.084 41.0392 118.24 41.0244C118.396 41.0104 118.544 40.9889 118.686 40.9608V43.2953C118.432 43.3375 118.149 43.3656 117.837 43.3803C117.526 43.3944 117.222 43.4017 116.925 43.4017C116.458 43.4017 116.016 43.3696 115.599 43.306C115.181 43.2424 114.813 43.1185 114.495 42.9344C114.177 42.751 113.926 42.4886 113.742 42.1491C113.558 41.8097 113.466 41.3638 113.466 40.8122V34.3397" fill="#0D1E3A"></path><path d="M119.301 30.6269V28.1438H122.315V30.6269H119.301ZM122.315 32.3247V43.2961H119.301V32.3247H122.315Z" fill="#0D1E3A"></path><path d="M126.315 40.5692C126.449 40.8028 126.623 40.9936 126.835 41.1422C127.047 41.2909 127.292 41.4006 127.567 41.4709C127.843 41.5419 128.13 41.5767 128.427 41.5767C128.639 41.5767 128.862 41.552 129.095 41.5024C129.329 41.4529 129.541 41.3752 129.732 41.2688C129.923 41.163 130.082 41.0211 130.209 40.8443C130.336 40.6676 130.4 40.4446 130.4 40.1755C130.4 39.7229 130.099 39.3835 129.498 39.1566C128.897 38.9303 128.058 38.704 126.984 38.4777C126.545 38.3786 126.117 38.2621 125.7 38.1276C125.282 37.993 124.911 37.8163 124.586 37.5973C124.26 37.3784 123.998 37.1026 123.8 36.7699C123.602 36.4378 123.503 36.0308 123.503 35.5494C123.503 34.8424 123.641 34.262 123.917 33.8094C124.193 33.3569 124.557 32.9994 125.01 32.7376C125.463 32.4758 125.972 32.2917 126.538 32.1859C127.104 32.0802 127.684 32.0266 128.278 32.0266C128.872 32.0266 129.448 32.0835 130.007 32.1967C130.566 32.3098 131.064 32.5013 131.503 32.7697C131.942 33.0389 132.306 33.3957 132.596 33.8416C132.886 34.2874 133.059 34.8498 133.116 35.5287H130.251C130.209 34.9489 129.99 34.5559 129.593 34.351C129.197 34.1462 128.73 34.0431 128.193 34.0431C128.023 34.0431 127.839 34.0538 127.641 34.0752C127.443 34.0966 127.262 34.1428 127.1 34.2131C126.937 34.2841 126.8 34.3865 126.686 34.5211C126.573 34.6557 126.516 34.8364 126.516 35.062C126.516 35.3312 126.615 35.5501 126.814 35.7201C127.012 35.8902 127.27 36.0281 127.588 36.1339C127.906 36.2396 128.27 36.3354 128.681 36.4204C129.092 36.5054 129.509 36.5971 129.933 36.6962C130.372 36.7953 130.8 36.9158 131.217 37.0571C131.635 37.1983 132.006 37.3858 132.331 37.6194C132.657 37.8531 132.919 38.143 133.117 38.4898C133.315 38.8365 133.414 39.2643 133.414 39.7738C133.414 40.4955 133.269 41.1001 132.979 41.5881C132.689 42.0762 132.31 42.4691 131.843 42.7657C131.377 43.0623 130.843 43.2718 130.241 43.3917C129.639 43.5115 129.028 43.5718 128.406 43.5718C127.783 43.5718 127.146 43.5082 126.538 43.381C125.929 43.2538 125.388 43.0415 124.914 42.7443C124.44 42.447 124.051 42.0547 123.747 41.5667C123.443 41.0786 123.277 40.4667 123.249 39.731H126.113C126.113 40.0563 126.18 40.3355 126.315 40.5692Z" fill="#0D1E3A"></path><path d="M134.199 32.3245V29.0354H137.212V32.3245H139.419V34.3403H137.212V39.7732C137.212 40.2826 137.297 40.6221 137.466 40.7914C137.636 40.9615 137.976 41.0458 138.485 41.0458C138.655 41.0458 138.817 41.0392 138.973 41.0244C139.129 41.0104 139.277 40.9889 139.419 40.9608V43.2953C139.165 43.3375 138.882 43.3656 138.57 43.3803C138.259 43.3944 137.955 43.4017 137.658 43.4017C137.191 43.4017 136.749 43.3696 136.332 43.306C135.914 43.2424 135.546 43.1185 135.228 42.9344C134.91 42.751 134.659 42.4886 134.475 42.1491C134.291 41.8097 134.199 41.3638 134.199 40.8122V34.3397" fill="#0D1E3A"></path><path d="M142.814 32.3246V34.3618H142.856C142.998 34.0224 143.188 33.7077 143.429 33.4172C143.67 33.1273 143.946 32.8796 144.257 32.6747C144.568 32.4699 144.9 32.3105 145.254 32.1974C145.608 32.0842 145.976 32.0273 146.358 32.0273C146.556 32.0273 146.775 32.0628 147.016 32.1331V34.9342C146.874 34.9061 146.705 34.8813 146.506 34.8599C146.308 34.8385 146.117 34.8278 145.933 34.8278C145.382 34.8278 144.915 34.9202 144.533 35.1036C144.15 35.2877 143.843 35.5388 143.61 35.8568C143.376 36.1748 143.21 36.5463 143.111 36.9708C143.012 37.3952 142.962 37.8552 142.962 38.3499V43.2947H139.949V32.3233H142.814L142.814 32.3246Z" fill="#0D1E3A"></path><path d="M152.782 46.5644C152.202 46.9467 151.396 47.1375 150.363 47.1375C150.051 47.1375 149.743 47.1268 149.439 47.106C149.135 47.0846 148.827 47.0598 148.516 47.0317V44.5486C148.799 44.5767 149.089 44.6048 149.386 44.6336C149.684 44.6617 149.981 44.6684 150.278 44.655C150.673 44.6129 150.967 44.4569 151.159 44.1884C151.349 43.9193 151.445 43.622 151.445 43.2973C151.445 43.057 151.403 42.8307 151.318 42.6185L147.476 32.3259H150.681L153.164 39.8381H153.207L155.605 32.3259H158.724L154.14 44.6557C153.815 45.5468 153.362 46.1835 152.782 46.5657V46.5644Z" fill="#0D1E3A"></path><path d="M134.973 16.3534C135.241 15.6391 135.623 15.0305 136.119 14.5284C136.613 14.0263 137.208 13.6373 137.902 13.3615C138.594 13.0857 139.373 12.9478 140.236 12.9478C141.099 12.9478 141.881 13.0857 142.581 13.3615C143.281 13.6373 143.879 14.027 144.375 14.5284C144.87 15.0305 145.252 15.6391 145.521 16.3534C145.789 17.0677 145.924 17.8637 145.924 18.7408C145.924 19.6178 145.789 20.4104 145.521 21.1174C145.252 21.825 144.87 22.4296 144.375 22.9317C143.879 23.4338 143.281 23.8194 142.581 24.0885C141.881 24.357 141.099 24.4916 140.236 24.4916C139.373 24.4916 138.594 24.357 137.902 24.0885C137.208 23.8201 136.614 23.4345 136.119 22.9317C135.623 22.4296 135.241 21.825 134.973 21.1174C134.703 20.4104 134.57 19.6178 134.57 18.7408C134.57 17.8637 134.704 17.0677 134.973 16.3534ZM137.71 20.0248C137.795 20.4426 137.94 20.8175 138.145 21.1495C138.35 21.4823 138.623 21.7474 138.962 21.9455C139.301 22.1437 139.726 22.2428 140.235 22.2428C140.745 22.2428 141.173 22.1437 141.519 21.9455C141.866 21.7474 142.142 21.4823 142.347 21.1495C142.552 20.8175 142.697 20.4426 142.782 20.0248C142.867 19.6077 142.909 19.1799 142.909 18.7408C142.909 18.3016 142.867 17.8704 142.782 17.446C142.697 17.0215 142.552 16.6466 142.347 16.3213C142.141 15.9959 141.866 15.7308 141.519 15.5252C141.173 15.3204 140.745 15.2173 140.235 15.2173C139.726 15.2173 139.301 15.3204 138.962 15.5252C138.623 15.7308 138.35 15.9959 138.145 16.3213C137.94 16.6466 137.795 17.0215 137.71 17.446C137.625 17.8704 137.583 18.3022 137.583 18.7408C137.583 19.1793 137.625 19.6077 137.71 20.0248Z" fill="#0D1E3A"></path><path d="M45.6046 18.5413C44.7035 28.1276 40.5996 40.1682 26.661 45.7121C26.5834 45.7429 26.4977 45.7623 26.4127 45.7623C26.3276 45.7623 26.2419 45.7429 26.1643 45.7121C25.8262 45.5802 24.5261 45.0132 24.2308 44.8773C23.8506 44.6945 23.4777 44.5084 23.1128 44.3183C22.4721 43.9882 21.8589 43.6387 21.2684 43.2779H21.2644C20.7515 42.9632 20.2588 42.6372 19.7815 42.2991C18.6092 41.4797 17.5374 40.5986 16.5626 39.6667C15.8637 38.9986 15.2116 38.3077 14.6097 37.5934C13.8874 36.7505 13.2353 35.8775 12.6415 34.9844C12.4393 34.6818 12.2452 34.3745 12.059 34.0679C11.9733 33.932 11.8923 33.7961 11.8147 33.6602C11.6051 33.3027 11.4029 32.9458 11.2088 32.581C11.2048 32.5729 11.2008 32.5696 11.2008 32.5616C11.1191 32.4143 11.0414 32.2663 10.9638 32.115C10.9638 32.111 10.9598 32.107 10.9557 32.0996C10.9444 32.0762 10.9323 32.0527 10.9209 32.03C10.1832 30.5779 9.57728 29.0943 9.08053 27.6034C8.56771 26.0623 8.16803 24.5164 7.86542 22.9987C7.56617 21.477 7.35662 19.9821 7.22072 18.5413C7.21268 18.4677 7.20532 18.394 7.2013 18.3238C6.5258 10.7874 7.82258 4.82372 7.82258 4.82372C18.4646 5.0567 26.2848 0.323486 26.2848 0.323486H26.5412C26.5412 0.323486 34.3607 5.0567 45.0034 4.82372C45.0034 4.82372 46.3196 10.9039 45.6053 18.5413H45.6046Z" stroke="#0D1E3A" stroke-miterlimit="10"></path><path fill-rule="evenodd" clip-rule="evenodd" d="M44.1545 5.6553C33.9978 5.87757 26.5352 1.3606 26.5352 1.3606H26.2908C26.2908 1.3606 18.8281 5.87757 8.67147 5.6553C8.67147 5.6553 7.43361 11.3472 8.07832 18.5394C8.08233 18.6064 8.0897 18.6767 8.09706 18.747C8.22694 20.1214 8.42711 21.5481 8.71231 23.0008C9.00153 24.4496 9.38313 25.9244 9.87185 27.3953C10.3458 28.8179 10.9243 30.2339 11.6286 31.6197L11.662 31.6866C11.6661 31.694 11.6694 31.698 11.6694 31.7014C11.7437 31.846 11.8174 31.9866 11.8957 32.1278C11.8957 32.1352 11.8997 32.1392 11.903 32.1466C12.0885 32.4947 12.2813 32.8361 12.4808 33.1769C12.5551 33.3068 12.6328 33.436 12.7145 33.5659C12.8925 33.8584 13.0773 34.151 13.2701 34.4402C13.8372 35.2924 14.4598 36.1259 15.1487 36.93C15.7231 37.6115 16.3457 38.2716 17.0125 38.909C17.9424 39.798 18.9654 40.6396 20.0841 41.4215C20.54 41.7442 21.0106 42.0548 21.4994 42.3554H21.5034C22.0664 42.7002 22.6522 43.0336 23.2634 43.3483C23.6116 43.5297 23.9677 43.7078 24.3306 43.8819C24.6124 44.0117 24.8936 44.1409 25.1828 44.2675C25.1975 44.2748 25.2123 44.2822 25.227 44.2936C25.227 44.2909 25.2283 44.2884 25.231 44.2862C25.5383 44.4235 25.8536 44.5527 26.1757 44.6792C26.25 44.7087 26.331 44.7274 26.4127 44.7274C26.4943 44.7274 26.576 44.7087 26.6496 44.6792C39.9522 39.3876 43.8686 27.8974 44.7282 18.7483C45.4098 11.4597 44.1538 5.65664 44.1538 5.65664L44.1545 5.6553ZM21.7417 37.8505C21.8294 37.2379 21.5871 36.7379 21.2978 36.2471C21.1224 35.9505 20.9417 35.6533 20.8038 35.3393C20.3465 34.3009 20.6337 33.0524 21.4552 32.2785C20.949 33.4882 21.3139 35.0421 21.2891 35.0595C21.2911 35.4578 22.1052 37.2393 21.7417 37.8505ZM32.0195 35.3393C31.881 35.654 31.7002 35.9505 31.5255 36.2471C31.2362 36.7379 30.9939 37.2379 31.0816 37.8505C30.7187 37.2393 31.5322 35.4571 31.5342 35.0595C31.5087 35.0427 31.8743 33.4882 31.3681 32.2785C32.1896 33.0517 32.4768 34.3009 32.0195 35.3393ZM38.6614 17.6758C37.9049 21.2126 35.46 23.0725 32.3402 24.5339C32.839 24.5594 33.1737 24.5674 33.5071 24.5969C33.8445 24.6263 34.1799 24.6772 34.7195 24.7441C34.3286 24.9791 34.1271 25.1411 33.8981 25.2322C32.2358 25.893 30.5855 26.5906 28.9165 27.2306C29.0096 27.3645 29.106 27.4984 29.205 27.6309C29.9455 28.6238 30.775 29.5497 31.5442 30.5217C31.9807 31.0734 32.2157 31.6987 32.0209 32.5703C31.6748 31.4081 31.095 30.5746 30.1109 30.031C30.8553 31.135 31.2356 32.3186 31.0541 33.6495C30.8734 34.9744 30.3465 36.0972 29.262 36.9266C29.1214 37.017 29.0491 37.0277 29.0491 37.0277L29.1528 36.8008V36.8021C30.39 34.4168 29.7895 32.1901 28.6179 29.9841C28.2805 29.3495 27.8627 28.8983 27.3138 28.5588C27.7161 29.7077 27.3138 30.9449 26.2359 31.706C25.8878 31.9524 25.5544 32.2296 25.2538 32.5315C24.7035 33.0845 24.5361 33.768 24.676 34.5306C24.6861 34.5868 24.6988 34.643 24.7102 34.7C24.7195 34.7488 24.7309 34.797 24.7282 34.8486C24.4946 34.4636 24.3908 34.0432 24.4437 33.5987C24.5562 32.6654 25.0114 31.9143 25.7144 31.3037C25.8536 31.1818 26.5472 30.5632 26.3229 29.1901C25.5584 29.4861 25.1661 30.0069 25.302 30.8966C24.9813 30.3972 25.0817 29.553 25.4727 29.1051C25.5865 28.9752 25.7077 28.8507 25.8074 28.7101C25.9099 28.5655 25.9527 28.439 25.9634 28.3151C25.1815 28.6746 24.6305 29.1848 24.2061 29.9841C23.0338 32.1914 22.4333 34.4194 23.6718 36.8061V36.8075L23.7675 37.017C23.7675 37.017 23.7019 37.017 23.5613 36.9266C22.4768 36.0972 21.9492 34.9744 21.7691 33.6495C21.5884 32.3193 21.968 31.1357 22.7124 30.031C21.7283 30.5746 21.1479 31.4081 20.8024 32.5703C20.6076 31.6987 20.8426 31.0734 21.2791 30.5217C22.0483 29.5497 22.8778 28.6238 23.6182 27.6309C23.7173 27.4984 23.8137 27.3645 23.9068 27.2306C22.2371 26.5906 20.5875 25.893 18.9252 25.2322C18.6962 25.1411 18.4954 24.9798 18.1038 24.7441C18.6427 24.6779 18.9788 24.627 19.3162 24.5969C19.6489 24.5674 19.9837 24.56 20.4831 24.5339C17.3633 23.0731 14.9184 21.2126 14.1619 17.6758C15.0998 18.2689 16.8117 19.1781 16.8632 19.1232C14.0554 16.5932 12.1568 13.7761 13.8787 9.81544C13.9055 9.90113 13.9463 9.98482 13.9577 10.0725C14.2215 12.083 15.4493 13.3094 17.2234 14.0901C18.4418 14.6263 19.6784 15.1231 20.8767 15.7002C22.6897 16.5732 24.0193 17.9503 25.0375 19.6902C25.1688 19.9152 25.312 20.1341 25.4593 20.3504C25.3743 20.1127 25.3073 19.8663 25.2652 19.6079C25.1306 18.7851 25.2973 18.0239 25.78 17.337C25.8543 17.2313 25.9186 17.1168 25.9882 17.005C25.6642 17.2085 25.3663 17.4368 25.0342 17.5928C24.6767 17.7608 24.3018 17.6718 23.9396 17.5191C24.4705 17.5118 24.826 17.1837 25.1788 16.859C25.5156 16.5491 25.8744 16.2746 26.264 16.0536C26.264 16.0536 26.3544 15.9854 26.6001 15.8802C26.7755 15.7986 26.9569 15.7276 27.1457 15.6694C27.1578 15.6653 27.1698 15.662 27.1826 15.6586C27.2267 15.6466 27.2723 15.6379 27.3178 15.6305C27.8119 15.4873 28.5148 15.3286 29.4983 15.1887L29.4963 15.192C29.5733 15.1726 29.6536 15.1592 29.7359 15.1545C30.149 15.1311 30.3632 15.271 30.4904 15.6633C30.5206 15.7564 30.5299 15.8561 30.552 15.972C30.301 15.7617 30.0888 15.7477 29.8524 15.9592C29.6663 16.1253 29.4983 16.3181 29.3517 16.5203C29.1113 16.851 28.8234 17.1215 28.4686 17.3236C28.3488 17.3919 28.2356 17.4709 28.1212 17.5472C27.5889 17.9041 27.364 18.4015 27.4195 19.0402C27.437 19.2444 27.534 19.547 27.674 19.8683C27.7101 19.8094 27.7489 19.7512 27.7837 19.6916C28.8014 17.9523 30.1309 16.5745 31.9439 15.7015C33.1423 15.1244 34.3794 14.6277 35.5972 14.0914C37.3713 13.3101 38.5992 12.0843 38.8629 10.0739C38.8743 9.98616 38.9152 9.90247 38.9426 9.81678C40.6652 13.7774 38.7659 16.5946 35.9581 19.1245C36.009 19.1794 37.7215 18.271 38.6594 17.6771L38.6614 17.6758Z" fill="#0D1E3A"></path><path d="M48.0408 27.1516C48.8911 27.7079 49.3557 28.5589 49.7714 30.3002C50.2079 29.0462 51.0783 28.2542 52.3181 27.7796C51.9961 28.5354 51.7056 29.3067 51.3434 30.0424C51.0501 30.6383 50.5279 31.0272 49.9314 31.3178C49.6764 31.4423 49.4856 31.4296 49.2633 31.2301C48.6454 30.6764 48.2825 29.9915 48.1881 29.1781C48.1111 28.5153 48.089 27.8459 48.0408 27.1516Z" fill="#0D1E3A"></path><path d="M48.5449 24.1235C49.515 24.8506 50.0968 25.7035 50.2815 26.9126C50.6765 25.7597 51.3715 24.9892 52.4333 24.4509C52.0985 25.7892 51.8642 27.09 50.5835 27.8398C50.2896 28.0119 50.0847 28.0186 49.8256 27.7849C49.3001 27.3103 48.9259 26.7579 48.8154 26.051C48.721 25.4444 48.644 24.8352 48.5449 24.1242V24.1235Z" fill="#0D1E3A"></path><path d="M46.4174 32.6479C47.2167 34.0913 47.4765 35.4785 47.0038 36.9868C47.9618 35.7363 49.2278 35.115 50.8192 34.9938C49.9201 36.1962 49.1535 37.4709 47.5936 37.8726C47.4544 37.9087 47.3104 37.9295 47.1678 37.9482C46.3678 38.0553 46.3477 38.0393 46.0177 37.3069C45.6756 36.5477 45.6046 35.7523 45.7787 34.9536C45.94 34.2125 46.1804 33.4888 46.4167 32.6479H46.4174Z" fill="#0D1E3A"></path><path d="M47.4604 30.219C48.3301 31.2661 48.8308 32.4437 48.6969 33.875C49.353 32.5662 50.4436 31.8492 51.8562 31.4328C51.2979 32.4162 50.9598 33.4747 50.0901 34.1616C49.6677 34.495 49.1395 34.6971 48.6521 34.9442C48.4184 35.0627 48.243 34.9576 48.0736 34.7674C47.5628 34.1944 47.2575 33.5162 47.2254 32.7704C47.1893 31.9262 47.2756 31.0759 47.3091 30.229C47.36 30.2264 47.4109 30.223 47.4617 30.2203L47.4604 30.219Z" fill="#0D1E3A"></path><path d="M43.2989 45.5822C42.132 45.7114 41.0635 45.8961 39.991 45.9309C38.8181 45.9684 37.7884 45.5152 36.9288 44.685C38.5791 43.642 41.5161 44.0303 43.2989 45.5822Z" fill="#0D1E3A"></path><path d="M43.4991 37.7373C43.8351 39.6433 42.444 42.4156 40.8767 43.0182C40.4898 41.2809 41.3259 39.5857 43.4991 37.7373Z" fill="#0D1E3A"></path><path d="M41.032 43.215C42.5625 41.793 44.8072 41.3666 46.9837 42.259C45.2846 43.1146 43.6678 44.1382 41.658 43.4654C41.4505 43.3958 41.2503 43.3034 41.0314 43.215H41.032Z" fill="#0D1E3A"></path><path d="M44.4109 40.5151C44.3266 40.5954 44.2415 40.6758 44.1277 40.7836C43.6772 39.8804 43.5734 38.9465 43.9048 38.0387C44.2482 37.0981 44.7329 36.209 45.1848 35.2356C45.9286 36.752 45.6802 38.8247 44.6559 40.1589C44.5763 40.2627 44.5073 40.3738 44.433 40.4816C44.4243 40.4923 44.4169 40.5037 44.4102 40.5158L44.4109 40.5151Z" fill="#0D1E3A"></path><path d="M44.4109 40.515C44.4176 40.5029 44.425 40.4915 44.4337 40.4808C44.5776 40.3496 44.7249 40.2217 44.8641 40.0858C45.8242 39.1452 46.9549 38.6029 48.3173 38.5915C48.6668 38.5889 49.0169 38.5735 49.3764 38.6136C48.2551 39.6393 47.2234 40.7828 45.5992 40.9347C45.1627 40.9756 44.7182 40.9247 44.2476 40.9153C44.3239 40.7292 44.3674 40.6221 44.4109 40.5156V40.515Z" fill="#0D1E3A"></path><path d="M52.3255 21.2434C52.142 22.1225 52.1628 23.0745 51.5482 23.8102C50.6906 24.8365 50.5433 24.8265 49.7132 23.8999C49.3958 23.5458 49.2305 23.0343 49.0651 22.5697C48.9219 22.166 48.8763 21.7275 48.7859 21.295C49.4568 21.5092 50.137 22.328 50.5788 23.4306C50.787 23.0169 50.9537 22.561 51.2262 22.1807C51.502 21.7971 51.883 21.4891 52.2177 21.1477C52.2538 21.1792 52.2893 21.2106 52.3255 21.2428V21.2434Z" fill="#0D1E3A"></path><path d="M48.9366 18.8352C49.7989 19.2496 50.3278 19.8876 50.6103 20.8671C50.8493 19.8789 51.4043 19.249 52.1394 18.7522C52.209 19.828 51.7122 21.0391 51.0113 21.6062C50.7248 21.8378 50.4663 21.8626 50.2173 21.6102C49.9616 21.3511 49.6536 21.0927 49.523 20.7713C49.27 20.1494 49.1254 19.4833 48.9359 18.8352H48.9366Z" fill="#0D1E3A"></path><path d="M50.238 7.90741C50.3552 8.60701 50.5018 9.26913 50.0653 9.88973C49.9515 10.0511 49.8256 10.1354 49.6563 10.0303C49.3791 9.85827 49.0798 9.69492 48.8629 9.4606C48.6366 9.21624 48.4974 8.89154 48.2892 8.55145C48.9011 8.67932 49.3363 8.9692 49.6697 9.44051C49.7922 8.5876 49.8812 8.34324 50.238 7.90674V7.90741Z" fill="#0D1E3A"></path><path d="M49.347 8.23752C49.2673 7.20853 49.2807 7.13957 49.6924 6.57788C49.7889 7.10007 49.9053 7.55063 49.7186 8.0186C49.578 8.37074 49.3035 8.52472 49.0042 8.31384C48.6253 8.04605 48.3173 7.67649 48.0248 7.29958C48.6581 7.31498 49.0424 7.66177 49.3463 8.23752H49.347Z" fill="#0D1E3A"></path><path d="M48.6795 5.73096C49.0598 6.22838 49.2733 6.73852 49.0859 7.38524C48.5664 6.97887 48.4124 6.33148 48.6795 5.73096Z" fill="#0D1E3A"></path><path d="M48.0408 27.1516C48.8911 27.7079 49.3557 28.5589 49.7714 30.3002C50.2079 29.0462 51.0783 28.2542 52.3181 27.7796C51.9961 28.5354 51.7056 29.3067 51.3434 30.0424C51.0501 30.6383 50.5279 31.0272 49.9314 31.3178C49.6764 31.4423 49.4856 31.4296 49.2633 31.2301C48.6454 30.6764 48.2825 29.9915 48.1881 29.1781C48.1111 28.5153 48.089 27.8459 48.0408 27.1516Z" fill="#0D1E3A"></path><path d="M41.0655 39.6448C40.5473 42.1285 39.1213 43.6543 36.7634 44.3954C36.9114 43.0236 37.538 41.9605 38.6038 41.1879C39.3677 40.6343 40.2032 40.1804 41.0662 39.6448H41.0655Z" fill="#0D1E3A"></path><path d="M48.5449 24.1235C49.515 24.8506 50.0968 25.7035 50.2815 26.9126C50.6765 25.7597 51.3715 24.9892 52.4333 24.4509C52.0985 25.7892 51.8642 27.09 50.5835 27.8398C50.2896 28.0119 50.0847 28.0186 49.8256 27.7849C49.3001 27.3103 48.9259 26.7579 48.8154 26.051C48.721 25.4444 48.644 24.8352 48.5449 24.1242V24.1235Z" fill="#0D1E3A"></path><path d="M46.4174 32.6479C47.2167 34.0913 47.4765 35.4785 47.0038 36.9868C47.9618 35.7363 49.2278 35.115 50.8192 34.9938C49.9201 36.1962 49.1535 37.4709 47.5936 37.8726C47.4544 37.9087 47.3104 37.9295 47.1678 37.9482C46.3678 38.0553 46.3477 38.0393 46.0177 37.3069C45.6756 36.5477 45.6046 35.7523 45.7787 34.9536C45.94 34.2125 46.1804 33.4888 46.4167 32.6479H46.4174Z" fill="#0D1E3A"></path><path d="M47.4604 30.219C48.3301 31.2661 48.8308 32.4437 48.6969 33.875C49.353 32.5662 50.4436 31.8492 51.8562 31.4328C51.2979 32.4162 50.9598 33.4747 50.0901 34.1616C49.6677 34.495 49.1395 34.6971 48.6521 34.9442C48.4184 35.0627 48.243 34.9576 48.0736 34.7674C47.5628 34.1944 47.2575 33.5162 47.2254 32.7704C47.1893 31.9262 47.2756 31.0759 47.3091 30.229C47.36 30.2264 47.4109 30.223 47.4617 30.2203L47.4604 30.219Z" fill="#0D1E3A"></path><path d="M43.2989 45.5822C42.132 45.7114 41.0635 45.8961 39.991 45.9309C38.8181 45.9684 37.7884 45.5152 36.9288 44.685C38.5791 43.642 41.5161 44.0303 43.2989 45.5822Z" fill="#0D1E3A"></path><path d="M43.4991 37.7373C43.8351 39.6433 42.444 42.4156 40.8767 43.0182C40.4898 41.2809 41.3259 39.5857 43.4991 37.7373Z" fill="#0D1E3A"></path><path d="M41.032 43.215C42.5625 41.793 44.8072 41.3666 46.9837 42.259C45.2846 43.1146 43.6678 44.1382 41.658 43.4654C41.4505 43.3958 41.2503 43.3034 41.0314 43.215H41.032Z" fill="#0D1E3A"></path><path d="M44.4109 40.5151C44.3266 40.5954 44.2415 40.6758 44.1277 40.7836C43.6772 39.8804 43.5734 38.9465 43.9048 38.0387C44.2482 37.0981 44.7329 36.209 45.1848 35.2356C45.9286 36.752 45.6802 38.8247 44.6559 40.1589C44.5763 40.2627 44.5073 40.3738 44.433 40.4816C44.4243 40.4923 44.4169 40.5037 44.4102 40.5158L44.4109 40.5151Z" fill="#0D1E3A"></path><path d="M44.4109 40.515C44.4176 40.5029 44.425 40.4915 44.4337 40.4808C44.5776 40.3496 44.7249 40.2217 44.8641 40.0858C45.8242 39.1452 46.9549 38.6029 48.3173 38.5915C48.6668 38.5889 49.0169 38.5735 49.3764 38.6136C48.2551 39.6393 47.2234 40.7828 45.5992 40.9347C45.1627 40.9756 44.7182 40.9247 44.2476 40.9153C44.3239 40.7292 44.3674 40.6221 44.4109 40.5156V40.515Z" fill="#0D1E3A"></path><path d="M52.3255 21.2434C52.142 22.1225 52.1628 23.0745 51.5482 23.8102C50.6906 24.8365 50.5433 24.8265 49.7132 23.8999C49.3958 23.5458 49.2305 23.0343 49.0651 22.5697C48.9219 22.166 48.8763 21.7275 48.7859 21.295C49.4568 21.5092 50.137 22.328 50.5788 23.4306C50.787 23.0169 50.9537 22.561 51.2262 22.1807C51.502 21.7971 51.883 21.4891 52.2177 21.1477C52.2538 21.1792 52.2893 21.2106 52.3255 21.2428V21.2434Z" fill="#0D1E3A"></path><path d="M48.8857 16.632C49.6944 16.9011 50.2333 17.4052 50.5935 18.2387C50.6933 17.339 51.1124 16.7197 51.7062 16.1975C51.889 17.1408 51.5864 18.2669 51.0314 18.846C50.8044 19.083 50.5788 19.1338 50.3304 18.939C50.0753 18.7388 49.7741 18.5454 49.6228 18.2762C49.3289 17.7554 49.126 17.183 48.8857 16.632Z" fill="#0D1E3A"></path><path d="M48.7551 14.3626C49.529 14.5601 50.0673 14.9959 50.4596 15.7511C50.4931 14.9028 50.8439 14.2956 51.3641 13.7681C51.5977 14.6377 51.3902 15.7109 50.9095 16.29C50.7127 16.527 50.5051 16.5892 50.2601 16.4239C50.0084 16.2538 49.7138 16.0932 49.5538 15.8515C49.2445 15.3835 49.0169 14.862 48.7551 14.3626Z" fill="#0D1E3A"></path><path d="M48.7344 12.125C49.4018 12.3881 49.8323 12.8367 50.0974 13.5543C50.2226 12.8018 50.6029 12.3004 51.1264 11.8887C51.2369 12.69 50.9316 13.6233 50.4382 14.0852C50.236 14.274 50.0445 14.3068 49.8444 14.1314C49.6388 13.9513 49.3945 13.7753 49.2793 13.5416C49.0564 13.0897 48.9118 12.5997 48.7344 12.125Z" fill="#0D1E3A"></path><path d="M48.5356 10.2652C49.1763 10.4092 49.6288 10.7553 49.9696 11.3672C49.977 10.6689 50.2515 10.1621 50.6665 9.71558C50.8788 10.4252 50.7335 11.3123 50.3519 11.7997C50.1959 11.9992 50.0265 12.0554 49.821 11.9249C49.6101 11.791 49.3637 11.6658 49.2272 11.4709C48.962 11.0934 48.7625 10.6703 48.5356 10.2659V10.2652Z" fill="#0D1E3A"></path><path d="M4.78249 27.1516C3.93225 27.7079 3.46763 28.5589 3.05188 30.3002C2.61538 29.0462 1.74506 28.2542 0.505188 27.7796C0.827207 28.5354 1.11776 29.3067 1.47995 30.0424C1.77318 30.6383 2.29537 31.0272 2.89188 31.3178C3.14695 31.4423 3.33775 31.4296 3.56002 31.2301C4.17795 30.6764 4.5408 29.9915 4.6352 29.1781C4.71219 28.5153 4.73428 27.8459 4.78249 27.1516Z" fill="#0D1E3A"></path><path d="M4.27835 24.1235C3.30827 24.8506 2.72649 25.7035 2.54172 26.9126C2.14673 25.7597 1.45181 24.9892 0.390015 24.4509C0.724754 25.7892 0.959071 27.09 2.23978 27.8398C2.53368 28.0119 2.73855 28.0186 2.99763 27.7849C3.52317 27.3103 3.89741 26.7579 4.00788 26.051C4.10227 25.4444 4.17926 24.8352 4.27835 24.1242V24.1235Z" fill="#0D1E3A"></path><path d="M6.40597 32.6479C5.60661 34.0913 5.34686 35.4785 5.81951 36.9868C4.86148 35.7363 3.5955 35.115 2.00415 34.9938C2.90326 36.1962 3.66981 37.4709 5.2297 37.8726C5.36895 37.9087 5.51289 37.9295 5.65549 37.9482C6.45551 38.0553 6.4756 38.0393 6.80565 37.3069C7.14775 36.5477 7.21872 35.7523 7.04465 34.9536C6.88331 34.2125 6.64297 33.4888 6.40664 32.6479H6.40597Z" fill="#0D1E3A"></path><path d="M5.3629 30.219C4.49324 31.2661 3.99248 32.4437 4.12637 33.875C3.47028 32.5662 2.3797 31.8492 0.967102 31.4328C1.52545 32.4162 1.86353 33.4747 2.73319 34.1616C3.15563 34.495 3.68385 34.6971 4.17123 34.9442C4.40487 35.0627 4.58028 34.9576 4.74966 34.7674C5.26047 34.1944 5.56575 33.5162 5.59788 32.7704C5.63404 31.9262 5.54767 31.0759 5.5142 30.229C5.46332 30.2264 5.41244 30.223 5.36156 30.2203L5.3629 30.219Z" fill="#0D1E3A"></path><path d="M9.52435 45.5822C10.6913 45.7114 11.7597 45.8961 12.8322 45.9309C14.0052 45.9684 15.0348 45.5152 15.8944 44.685C14.2442 43.642 11.3072 44.0303 9.52435 45.5822Z" fill="#0D1E3A"></path><path d="M9.3242 37.7373C8.98812 39.6433 10.3793 42.4156 11.9465 43.0182C12.3335 41.2809 11.4973 39.5857 9.3242 37.7373Z" fill="#0D1E3A"></path><path d="M11.7919 43.215C10.2614 41.793 8.01668 41.3666 5.84021 42.259C7.53935 43.1146 9.15614 44.1382 11.1659 43.4654C11.3734 43.3958 11.5736 43.3034 11.7925 43.215H11.7919Z" fill="#0D1E3A"></path><path d="M8.41306 40.5151C8.49742 40.5954 8.58244 40.6758 8.69625 40.7836C9.14681 39.8804 9.25058 38.9465 8.91919 38.0387C8.57574 37.0981 8.09104 36.209 7.63914 35.2356C6.89535 36.752 7.14373 38.8247 8.16803 40.1589C8.2477 40.2627 8.31666 40.3738 8.39097 40.4816C8.39967 40.4923 8.40704 40.5037 8.41373 40.5158L8.41306 40.5151Z" fill="#0D1E3A"></path><path d="M8.41303 40.515C8.40634 40.5029 8.39897 40.4915 8.39027 40.4808C8.24633 40.3496 8.09905 40.2217 7.95979 40.0858C6.99976 39.1452 5.86901 38.6029 4.50662 38.5915C4.15716 38.5889 3.80702 38.5735 3.44751 38.6136C4.56889 39.6393 5.60055 40.7828 7.22471 40.9347C7.66121 40.9756 8.10574 40.9247 8.57638 40.9153C8.50006 40.7292 8.45655 40.6221 8.41303 40.5156V40.515Z" fill="#0D1E3A"></path><path d="M0.497803 21.2434C0.68124 22.1225 0.660486 23.0745 1.27507 23.8102C2.13267 24.8365 2.27995 24.8265 3.11011 23.8999C3.42744 23.5458 3.5928 23.0343 3.75816 22.5697C3.90143 22.166 3.94696 21.7275 4.03734 21.295C3.36652 21.5092 2.68633 22.328 2.24447 23.4306C2.03626 23.0169 1.86956 22.561 1.59709 22.1807C1.32126 21.7971 0.940328 21.4891 0.605589 21.1477C0.569437 21.1792 0.533955 21.2106 0.497803 21.2428V21.2434Z" fill="#0D1E3A"></path><path d="M3.88672 18.8352C3.02443 19.2496 2.49554 19.8876 2.21302 20.8671C1.97402 19.8789 1.41902 19.249 0.683935 18.7522C0.61431 19.828 1.11106 21.0391 1.81201 21.6062C2.09854 21.8378 2.35696 21.8626 2.60601 21.6102C2.86175 21.3511 3.16971 21.0927 3.30026 20.7713C3.55332 20.1494 3.69793 19.4833 3.88739 18.8352H3.88672Z" fill="#0D1E3A"></path><path d="M2.58524 7.90741C2.46808 8.60701 2.32147 9.26913 2.75797 9.88973C2.87178 10.0511 2.99764 10.1354 3.16702 10.0303C3.44418 9.85827 3.74344 9.69492 3.96035 9.4606C4.18664 9.21624 4.32589 8.89154 4.53409 8.55145C3.92219 8.67932 3.48703 8.9692 3.15363 9.44051C3.03112 8.5876 2.94208 8.34324 2.58524 7.90674V7.90741Z" fill="#0D1E3A"></path><path d="M3.477 8.23752C3.55667 7.20853 3.54328 7.13957 3.13155 6.57788C3.03515 7.10007 2.91866 7.55063 3.10544 8.0186C3.24603 8.37074 3.52052 8.52472 3.81977 8.31384C4.1987 8.04605 4.50666 7.67649 4.79922 7.29958C4.16589 7.31498 3.78161 7.66177 3.47767 8.23752H3.477Z" fill="#0D1E3A"></path><path d="M4.14377 5.73096C3.76351 6.22838 3.54995 6.73852 3.7374 7.38524C4.25692 6.97887 4.4109 6.33148 4.14377 5.73096Z" fill="#0D1E3A"></path><path d="M4.78249 27.1516C3.93225 27.7079 3.46763 28.5589 3.05188 30.3002C2.61538 29.0462 1.74506 28.2542 0.505188 27.7796C0.827207 28.5354 1.11776 29.3067 1.47995 30.0424C1.77318 30.6383 2.29537 31.0272 2.89188 31.3178C3.14695 31.4423 3.33775 31.4296 3.56002 31.2301C4.17795 30.6764 4.5408 29.9915 4.6352 29.1781C4.71219 28.5153 4.73428 27.8459 4.78249 27.1516Z" fill="#0D1E3A"></path><path d="M11.7578 39.6448C12.2759 42.1285 13.7019 43.6543 16.0598 44.3954C15.9119 43.0236 15.2852 41.9605 14.2194 41.1879C13.4555 40.6343 12.62 40.1804 11.7571 39.6448H11.7578Z" fill="#0D1E3A"></path><path d="M4.27835 24.1235C3.30827 24.8506 2.72649 25.7035 2.54172 26.9126C2.14673 25.7597 1.45181 24.9892 0.390015 24.4509C0.724754 25.7892 0.959071 27.09 2.23978 27.8398C2.53368 28.0119 2.73855 28.0186 2.99763 27.7849C3.52317 27.3103 3.89741 26.7579 4.00788 26.051C4.10227 25.4444 4.17926 24.8352 4.27835 24.1242V24.1235Z" fill="#0D1E3A"></path><path d="M6.40597 32.6479C5.60661 34.0913 5.34686 35.4785 5.81951 36.9868C4.86148 35.7363 3.5955 35.115 2.00415 34.9938C2.90326 36.1962 3.66981 37.4709 5.2297 37.8726C5.36895 37.9087 5.51289 37.9295 5.65549 37.9482C6.45551 38.0553 6.4756 38.0393 6.80565 37.3069C7.14775 36.5477 7.21872 35.7523 7.04465 34.9536C6.88331 34.2125 6.64297 33.4888 6.40664 32.6479H6.40597Z" fill="#0D1E3A"></path><path d="M5.3629 30.219C4.49324 31.2661 3.99248 32.4437 4.12637 33.875C3.47028 32.5662 2.3797 31.8492 0.967102 31.4328C1.52545 32.4162 1.86353 33.4747 2.73319 34.1616C3.15563 34.495 3.68385 34.6971 4.17123 34.9442C4.40487 35.0627 4.58028 34.9576 4.74966 34.7674C5.26047 34.1944 5.56575 33.5162 5.59788 32.7704C5.63404 31.9262 5.54767 31.0759 5.5142 30.229C5.46332 30.2264 5.41244 30.223 5.36156 30.2203L5.3629 30.219Z" fill="#0D1E3A"></path><path d="M9.52435 45.5822C10.6913 45.7114 11.7597 45.8961 12.8322 45.9309C14.0052 45.9684 15.0348 45.5152 15.8944 44.685C14.2442 43.642 11.3072 44.0303 9.52435 45.5822Z" fill="#0D1E3A"></path><path d="M9.3242 37.7373C8.98812 39.6433 10.3793 42.4156 11.9465 43.0182C12.3335 41.2809 11.4973 39.5857 9.3242 37.7373Z" fill="#0D1E3A"></path><path d="M11.7919 43.215C10.2614 41.793 8.01668 41.3666 5.84021 42.259C7.53935 43.1146 9.15614 44.1382 11.1659 43.4654C11.3734 43.3958 11.5736 43.3034 11.7925 43.215H11.7919Z" fill="#0D1E3A"></path><path d="M8.41306 40.5151C8.49742 40.5954 8.58244 40.6758 8.69625 40.7836C9.14681 39.8804 9.25058 38.9465 8.91919 38.0387C8.57574 37.0981 8.09104 36.209 7.63914 35.2356C6.89535 36.752 7.14373 38.8247 8.16803 40.1589C8.2477 40.2627 8.31666 40.3738 8.39097 40.4816C8.39967 40.4923 8.40704 40.5037 8.41373 40.5158L8.41306 40.5151Z" fill="#0D1E3A"></path><path d="M8.41303 40.515C8.40634 40.5029 8.39897 40.4915 8.39027 40.4808C8.24633 40.3496 8.09905 40.2217 7.95979 40.0858C6.99976 39.1452 5.86901 38.6029 4.50662 38.5915C4.15716 38.5889 3.80702 38.5735 3.44751 38.6136C4.56889 39.6393 5.60055 40.7828 7.22471 40.9347C7.66121 40.9756 8.10574 40.9247 8.57638 40.9153C8.50006 40.7292 8.45655 40.6221 8.41303 40.5156V40.515Z" fill="#0D1E3A"></path><path d="M0.497803 21.2434C0.68124 22.1225 0.660486 23.0745 1.27507 23.8102C2.13267 24.8365 2.27995 24.8265 3.11011 23.8999C3.42744 23.5458 3.5928 23.0343 3.75816 22.5697C3.90143 22.166 3.94696 21.7275 4.03734 21.295C3.36652 21.5092 2.68633 22.328 2.24447 23.4306C2.03626 23.0169 1.86956 22.561 1.59709 22.1807C1.32126 21.7971 0.940328 21.4891 0.605589 21.1477C0.569437 21.1792 0.533955 21.2106 0.497803 21.2428V21.2434Z" fill="#0D1E3A"></path><path d="M3.93758 16.632C3.12885 16.9011 2.58992 17.4052 2.22974 18.2387C2.12999 17.339 1.7109 16.7197 1.11707 16.1975C0.934301 17.1408 1.23691 18.2669 1.7919 18.846C2.01886 19.083 2.24447 19.1338 2.49285 18.939C2.74792 18.7388 3.04918 18.5454 3.20049 18.2762C3.49439 17.7554 3.69724 17.183 3.93758 16.632Z" fill="#0D1E3A"></path><path d="M4.06812 14.3626C3.2942 14.5601 2.75594 14.9959 2.36363 15.7511C2.33015 14.9028 1.97935 14.2956 1.45916 13.7681C1.22551 14.6377 1.43305 15.7109 1.91374 16.29C2.11056 16.527 2.3181 16.5892 2.56313 16.4239C2.81486 16.2538 3.10943 16.0932 3.26943 15.8515C3.57873 15.3835 3.80635 14.862 4.06812 14.3626Z" fill="#0D1E3A"></path><path d="M4.08955 12.125C3.42208 12.3881 2.99161 12.8367 2.72649 13.5543C2.6013 12.8018 2.22104 12.3004 1.6975 11.8887C1.58704 12.69 1.89232 13.6233 2.38573 14.0852C2.58791 14.274 2.77938 14.3068 2.97956 14.1314C3.18509 13.9513 3.42945 13.7753 3.5446 13.5416C3.76753 13.0897 3.91214 12.5997 4.08955 12.125Z" fill="#0D1E3A"></path><path d="M4.28771 10.2652C3.64702 10.4092 3.19445 10.7553 2.85369 11.3672C2.84632 10.6689 2.57184 10.1621 2.15676 9.71558C1.94454 10.4252 2.08981 11.3123 2.47142 11.7997C2.6274 11.9992 2.79678 12.0554 3.00231 11.9249C3.2132 11.791 3.45957 11.6658 3.59614 11.4709C3.86125 11.0934 4.06076 10.6703 4.28771 10.2659V10.2652Z" fill="#0D1E3A"></path></g><defs><clipPath id="clip0_1213_2650"><rect width="244.297" height="50" fill="white" transform="translate(0.390015 0.290039)"></rect></clipPath></defs></svg>